<?xml version="1.0"?>
<svg xmlns="http://www.w3.org/2000/svg" viewBox="0 0 16 16">
    <path style="line-height:normal;text-indent:0;text-align:start;text-decoration-line:none;text-decoration-style:solid;text-decoration-color:#000;text-transform:none;block-progression:tb;isolation:auto;mix-blend-mode:normal" d="M 3.5 2 C 2.6774686 2 2 2.6774686 2 3.5 L 2 12.5 C 2 13.322531 2.6774686 14 3.5 14 L 12.5 14 C 13.322531 14 14 13.322531 14 12.5 L 14 3.5 C 14 2.6774686 13.322531 2 12.5 2 L 3.5 2 z M 3.5 3 L 12.5 3 C 12.781469 3 13 3.2185314 13 3.5 L 13 12.5 C 13 12.781469 12.781469 13 12.5 13 L 3.5 13 C 3.2185314 13 3 12.781469 3 12.5 L 3 3.5 C 3 3.2185314 3.2185314 3 3.5 3 z M 5.7285156 5.0214844 L 5.0214844 5.7285156 L 7.2929688 8 L 5.0214844 10.271484 L 5.7285156 10.978516 L 8 8.7070312 L 10.271484 10.978516 L 10.978516 10.271484 L 8.7070312 8 L 10.978516 5.7285156 L 10.271484 5.0214844 L 8 7.2929688 L 5.7285156 5.0214844 z" font-weight="400" font-family="sans-serif" white-space="normal" overflow="visible"/>
</svg>
