<?xml version="1.0" encoding="iso-8859-1"?>
<!-- Generator: Adobe Illustrator 18.0.0, SVG Export Plug-In . SVG Version: 6.00 Build 0)  -->
<!DOCTYPE svg PUBLIC "-//W3C//DTD SVG 1.1//EN" "http://www.w3.org/Graphics/SVG/1.1/DTD/svg11.dtd">
<svg version="1.1" id="Capa_1" xmlns="http://www.w3.org/2000/svg" xmlns:xlink="http://www.w3.org/1999/xlink" x="0px" y="0px"
	 viewBox="0 0 494.377 494.377" style="enable-background:new 0 0 494.377 494.377;" xml:space="preserve">
<g>
	<path d="M415.705,349.076c0,2.986-2.445,5.417-5.418,5.417H38.492c-3,0-5.414-2.431-5.414-5.417V131.831
		c0-2.985,2.414-5.416,5.414-5.416h193.96v-33.07H38.492C17.264,93.344,0,110.6,0,131.831v217.245
		c0,21.221,17.264,38.488,38.492,38.488H160.52v20.315c-24.131,2.546-43.061,22.78-43.061,47.577v13.764
		c0,6.846,5.564,12.4,12.398,12.4h189.049c6.854,0,12.402-5.555,12.402-12.4v-13.764c0-24.807-18.928-45.031-43.064-47.577v-20.315
		h122.043c21.213,0,38.482-17.267,38.482-38.488v-97.207h-33.064V349.076z M306.504,455.456v1.36H142.26v-1.36
		c0-12.836,10.43-23.279,23.287-23.279h117.686C296.078,432.176,306.504,442.62,306.504,455.456z"/>
	<path d="M491.618,17.155c-2.284-2.782-5.71-4.398-9.317-4.398H303.193c-5.908,0-10.949,4.259-11.931,10.075l-3.114,18.587h40.027
		c19.125,0,35.02,14.041,37.922,32.344h84.565c12.891,0,24.246,6.445,31.23,16.228L494.15,27.15
		C494.849,23.608,493.918,19.945,491.618,17.155z"/>
	<path d="M450.662,98.567H343.707c-1.076,0-1.941-0.873-1.941-1.942V79.801c0-7.499-6.084-13.578-13.59-13.578h-57.342
		c-7.508,0-13.58,6.079-13.58,13.578v133.687c0,7.497,6.072,13.586,13.58,13.586h179.828c7.486,0,13.574-6.089,13.574-13.586
		V112.142C464.236,104.645,458.148,98.567,450.662,98.567z"/>
</g>
<g>
</g>
<g>
</g>
<g>
</g>
<g>
</g>
<g>
</g>
<g>
</g>
<g>
</g>
<g>
</g>
<g>
</g>
<g>
</g>
<g>
</g>
<g>
</g>
<g>
</g>
<g>
</g>
<g>
</g>
</svg>
