<?xml version="1.0" encoding="iso-8859-1"?>
<!-- Generator: Adobe Illustrator 18.0.0, SVG Export Plug-In . SVG Version: 6.00 Build 0)  -->
<!DOCTYPE svg PUBLIC "-//W3C//DTD SVG 1.1//EN" "http://www.w3.org/Graphics/SVG/1.1/DTD/svg11.dtd">
<svg version="1.1" id="Capa_1" xmlns="http://www.w3.org/2000/svg" xmlns:xlink="http://www.w3.org/1999/xlink" x="0px" y="0px"
	 viewBox="0 0 493.516 493.516" style="enable-background:new 0 0 493.516 493.516;" xml:space="preserve">
<g>
	<path d="M83.272,38.736c0.572-3.45,3.535-5.948,7.025-5.948h348.771c2.132,0,4.147,0.945,5.495,2.587
		c1.357,1.656,1.904,3.808,1.506,5.906l-20.048,102.735c1.97,2.825,3.618,5.859,5.075,9.013
		c8.486,5.154,16.137,12.009,22.623,20.214l24.525-125.685c2.291-11.744-0.75-23.774-8.373-33.028C462.27,5.299,451.03,0,439.068,0
		H90.297C70.734,0,54.181,14.002,50.928,33.302l-3.727,22.222h33.252L83.272,38.736z"/>
	<path d="M326.698,313.439c2.27-1.793,4.29-4.21,6.002-7.172l0.114-0.193c-12.983-17.394-20.955-40.257-20.955-65.358
		c0-39.705,19.82-73.91,48.206-89.424H169.176c-2.081,0-3.775-1.688-3.775-3.778V114.76c0-14.61-11.848-26.45-26.449-26.45H27.302
		c-14.603,0-26.451,11.84-26.451,26.45V375.06c0,14.609,11.849,26.447,26.451,26.447h255.686l3.975-22.108
		C291.668,353.327,305.772,329.914,326.698,313.439z"/>
	<path d="M492.333,469.404l-15.368-85.644c-3.781-20.852-15.036-38.638-30.709-50.981c-3.25-2.577-5.954-5.668-8.418-8.943
		c-10.662,8.063-22.945,13.314-36.148,14.771l14.182,90.519c0.191,1.242-0.08,2.514-0.785,3.555l-16.844,25.303
		c-0.928,1.402-2.498,2.24-4.177,2.24c-1.683,0-3.247-0.838-4.175-2.23l-16.879-25.305c-0.701-1.049-0.977-2.32-0.784-3.57
		l14.202-90.511c-13.191-1.466-25.458-6.716-36.116-14.777c-2.452,3.282-5.159,6.373-8.44,8.95
		c-15.675,12.344-26.945,30.13-30.706,50.981l-15.382,85.644c-1.076,5.974,0.543,12.113,4.463,16.772
		c3.874,4.65,9.619,7.339,15.691,7.339h156.238c6.082,0,11.832-2.689,15.723-7.339C491.789,481.517,493.424,475.378,492.333,469.404
		z"/>
	<path d="M394.081,166.966c-31.812,0-57.634,33.02-57.634,73.75c0,40.735,25.822,73.763,57.634,73.763
		c31.812,0,57.604-33.027,57.604-73.763C451.686,199.986,425.893,166.966,394.081,166.966z"/>
</g>
<g>
</g>
<g>
</g>
<g>
</g>
<g>
</g>
<g>
</g>
<g>
</g>
<g>
</g>
<g>
</g>
<g>
</g>
<g>
</g>
<g>
</g>
<g>
</g>
<g>
</g>
<g>
</g>
<g>
</g>
</svg>
