<?xml version="1.0" encoding="iso-8859-1"?>
<!-- Generator: Adobe Illustrator 19.0.0, SVG Export Plug-In . SVG Version: 6.00 Build 0)  -->
<svg version="1.1" id="Capa_1" xmlns="http://www.w3.org/2000/svg" xmlns:xlink="http://www.w3.org/1999/xlink" x="0px" y="0px"
	 viewBox="0 0 502.664 502.664" style="enable-background:new 0 0 502.664 502.664;" xml:space="preserve">
<g>
	<g>
		<g>
			<polygon style="fill:#010002;" points="390.927,344.744 390.927,399.965 361.354,399.965 433.465,472.055 406.717,498.889 
				502.664,498.889 502.664,402.877 475.851,429.668 			"/>
			<polygon style="fill:#010002;" points="406.717,3.775 433.465,30.587 361.397,102.655 390.927,102.655 390.927,157.92 
				475.851,73.017 502.664,99.808 502.664,3.775 			"/>
			<polygon style="fill:#010002;" points="111.672,399.965 111.672,344.831 26.812,429.647 0,402.877 0,498.889 95.947,498.889 
				69.199,472.055 141.31,399.965 			"/>
			<polygon style="fill:#010002;" points="111.672,157.855 111.672,102.655 141.267,102.655 69.199,30.587 95.947,3.775 0,3.775 
				0,99.786 26.812,72.996 			"/>
			<rect x="143.877" y="136.888" style="fill:#010002;" width="214.867" height="228.78"/>
		</g>
	</g>
	<g>
	</g>
	<g>
	</g>
	<g>
	</g>
	<g>
	</g>
	<g>
	</g>
	<g>
	</g>
	<g>
	</g>
	<g>
	</g>
	<g>
	</g>
	<g>
	</g>
	<g>
	</g>
	<g>
	</g>
	<g>
	</g>
	<g>
	</g>
	<g>
	</g>
</g>
<g>
</g>
<g>
</g>
<g>
</g>
<g>
</g>
<g>
</g>
<g>
</g>
<g>
</g>
<g>
</g>
<g>
</g>
<g>
</g>
<g>
</g>
<g>
</g>
<g>
</g>
<g>
</g>
<g>
</g>
</svg>
