<?xml version="1.0" encoding="utf-8"?>
<!-- Svg Vector Icons : http://www.onlinewebfonts.com/icon -->
<!DOCTYPE svg PUBLIC "-//W3C//DTD SVG 1.1//EN" "http://www.w3.org/Graphics/SVG/1.1/DTD/svg11.dtd">
<svg version="1.1" xmlns="http://www.w3.org/2000/svg" xmlns:xlink="http://www.w3.org/1999/xlink" x="0px" y="0px" viewBox="0 0 1000 1000" enable-background="new 0 0 1000 1000" xml:space="preserve">
<metadata> Svg Vector Icons : http://www.onlinewebfonts.com/icon </metadata>
<g><g transform="translate(0.000000,511.000000) scale(0.100000,-0.100000)"><path d="M156.7,4953.3l-56.7-54.4V835.9V-3227l56.7-54.5l54.4-56.7h671.5h669.2v-306.3c0-297.2,2.3-310.8,56.7-363l54.4-56.7h671.5h669.2v-181.5V-4427H2516c-490,0-490,0-544.4-56.7c-74.9-72.6-74.9-176.9,0-249.5l54.4-56.7h3155.5H8337l54.5,56.7c74.9,72.6,74.9,176.9,0,249.5C8337-4427,8337-4427,7847-4427h-487.7v181.5v181.5H7847c490,0,490,0,544.4,56.7c54.5,52.2,56.7,65.8,56.7,363v306.3h669.2h671.5l54.5,56.7l56.7,54.5V835.9v4062.9l-56.7,54.4l-54.5,56.7H5000H211.2L156.7,4953.3z M8656.9,4188.8c206.4-102.1,333.5-233.7,433.3-444.6l72.6-152V835.9v-2756.2l-72.6-152c-99.8-211-226.9-342.5-433.3-444.6l-172.4-83.9H5002.3H1517.8l-152,72.6c-211,99.8-342.5,226.9-444.6,433.3l-83.9,172.4V833.7v2758.5l72.6,152c38.6,83.9,113.4,197.4,163.3,251.8c99.8,108.9,306.3,229.1,446.9,263.1c52.2,11.3,1499.5,20.4,3527.5,18.2l3436.8-4.5L8656.9,4188.8z"/><path d="M1551.9,3891.6c-111.2-36.3-301.7-231.4-335.7-347.1c-38.6-136.1-38.6-5281.1,0-5417.2c36.3-124.8,224.6-313,349.4-349.3c136.1-38.6,6733-38.6,6869.1,0c124.8,36.3,313,224.6,349.3,349.3c38.6,136.1,38.6,5281.1,0,5417.2c-36.3,124.8-224.6,313.1-349.3,349.4C8307.5,3930.2,1672.1,3930.2,1551.9,3891.6z M7125.6,3324.5c199.6-199.6,233.7-245,233.7-306.3c0-99.8-86.2-186-186-186c-61.3,0-106.6,34-306.3,233.7c-199.6,199.6-233.7,245-233.7,306.3c0,49.9,20.4,93,56.7,129.3c36.3,36.3,79.4,56.7,129.3,56.7C6880.6,3558.1,6926,3524.1,7125.6,3324.5z M8214.5,3324.5c199.6-199.6,233.7-245,233.7-306.3c0-99.8-86.2-186-186-186c-61.3,0-106.6,34-306.3,233.7c-199.6,199.6-233.7,245-233.7,306.3c0,49.9,20.4,93,56.7,129.3s79.4,56.7,129.3,56.7C7969.5,3558.1,8014.9,3524.1,8214.5,3324.5z M8033,2417.1c369.8-367.5,415.1-421.9,415.1-487.7c0-49.9-20.4-93-56.7-129.3s-79.4-56.7-129.3-56.7c-65.8,0-120.2,45.4-487.7,415.1c-369.8,367.5-415.1,421.9-415.1,487.7c0,49.9,20.4,93,56.7,129.3c36.3,36.3,79.4,56.7,129.3,56.7C7611.1,2832.2,7665.5,2786.9,8033,2417.1z"/></g></g>
</svg>